<svg width="56" height="50" viewBox="0 0 56 50" fill="none" xmlns="http://www.w3.org/2000/svg">
<path d="M29.0998 45.8333H15.7648C12.2774 45.8333 9.50359 44.2667 7.01302 42.0762C1.91455 37.5919 10.2855 34.0083 13.4782 32.2533C18.219 29.6473 23.7668 28.6914 29.0998 29.3858C31.0349 29.6377 32.9194 30.1071 34.7414 30.7935" stroke="currentColor" stroke-width="2.5" stroke-linecap="round" stroke-linejoin="round"/>
<path d="M38.1264 13.5417C38.1264 18.7194 33.5799 22.9167 27.9714 22.9167C22.363 22.9167 17.8164 18.7194 17.8164 13.5417C17.8164 8.36402 22.363 4.16669 27.9714 4.16669C33.5799 4.16669 38.1264 8.36402 38.1264 13.5417Z" stroke="currentColor" stroke-width="2.5"/>
<path d="M42.6395 45.8333V31.25M34.7412 38.5417H50.5379" stroke="currentColor" stroke-width="2.5" stroke-linecap="round"/>
</svg>
