<svg width="56" height="42" viewBox="0 0 56 42" fill="none" xmlns="http://www.w3.org/2000/svg">
<rect x="1.47632" y="1.42065" width="53.2747" height="39.1587" rx="19.5794" stroke="currentColor" stroke-opacity="0.17"/>
<path d="M34.8979 26.0199C34.8979 27.406 36.4167 28.5298 38.2901 28.5298C40.1635 28.5298 41.6823 27.406 41.6823 26.0199C41.6823 24.6337 40.1635 23.5099 38.2901 23.5099C36.4167 23.5099 34.8979 24.6337 34.8979 26.0199Z" stroke="currentColor" stroke-width="2.5"/>
<path d="M7.76074 21V10.9603C12.5204 12 22.6325 13.3476 34.9067 13.9769C41.5133 14.3157 44.8166 14.485 46.6416 15.9415C48.4668 17.3979 48.4668 19.7445 48.4668 24.4379V27.8074C48.4668 32.6404 48.4668 35.0569 46.2422 36.5612C44.0174 38.0653 40.9857 37.8461 34.9221 37.4079C33.4445 37.3009 31.9234 37.1739 30.3752 37.0237" stroke="currentColor" stroke-width="2.5" stroke-linecap="round" stroke-linejoin="round"/>
<path d="M40.8362 14.3069C41.6904 11.9254 42.4633 7.59406 40.1605 5.44339C38.701 4.08025 36.5316 4.21122 34.4047 4.34963C23.2243 5.07718 15.3263 6.5551 10.911 7.55917C9.01241 7.99093 7.76074 9.36272 7.76074 10.8941" stroke="currentColor" stroke-width="2.5" stroke-linejoin="round"/>
<path d="M25.8523 31.0397H16.8065M16.8065 31.0397H7.76074M16.8065 31.0397V37.7328M16.8065 31.0397V24.3466" stroke="currentColor" stroke-width="2.5" stroke-linecap="round"/>
</svg>
