<?xml version="1.0" standalone="no"?>
<!DOCTYPE svg PUBLIC "-//W3C//DTD SVG 20010904//EN"
 "http://www.w3.org/TR/2001/REC-SVG-20010904/DTD/svg10.dtd">
<svg version="1.0" xmlns="http://www.w3.org/2000/svg"
 width="512.000000pt" height="512.000000pt" viewBox="0 0 512.000000 512.000000"
 preserveAspectRatio="xMidYMid meet">

<g transform="translate(0.000000,512.000000) scale(0.100000,-0.100000)"
fill="currentColor" stroke="none">
<path d="M2073 4786 c-459 -88 -793 -486 -793 -946 0 -670 687 -1139 1309
-894 309 122 539 404 596 733 87 493 -233 975 -726 1096 -90 22 -296 28 -386
11z m302 -321 c182 -38 352 -170 434 -335 126 -256 80 -542 -118 -741 -253
-252 -648 -252 -902 1 -252 250 -251 649 0 901 156 155 370 219 586 174z"/>
<path d="M1575 2549 c-310 -40 -601 -184 -830 -414 -169 -168 -282 -351 -355
-573 -57 -176 -64 -240 -65 -544 0 -264 1 -278 21 -304 11 -15 33 -37 48 -48
27 -21 36 -21 942 -24 905 -2 915 -2 954 18 104 53 116 196 22 268 l-35 27
-819 3 -818 2 0 123 c0 331 101 592 315 816 125 130 299 237 472 291 140 43
226 50 629 50 377 0 381 0 424 23 52 27 80 75 80 137 0 62 -28 110 -80 137
-43 23 -45 23 -439 22 -218 -1 -427 -6 -466 -10z"/>
<path d="M3615 2546 c-74 -34 -95 -83 -95 -219 l0 -102 -65 -19 c-36 -10 -100
-36 -142 -58 l-76 -38 -82 79 c-61 59 -93 82 -119 86 -98 19 -196 -61 -196
-160 0 -50 12 -69 97 -156 l74 -75 -39 -77 c-22 -42 -48 -105 -58 -141 l-18
-64 -117 -4 c-100 -3 -122 -6 -145 -24 -73 -54 -93 -136 -52 -213 35 -67 70
-81 203 -81 l110 0 19 -65 c10 -36 36 -100 58 -142 l39 -77 -74 -75 c-85 -87
-97 -106 -97 -156 0 -74 58 -147 128 -161 66 -13 101 3 188 87 l81 80 76 -39
c42 -22 106 -48 142 -58 l65 -19 0 -108 c0 -135 16 -174 85 -207 78 -38 156
-18 209 54 18 23 21 45 24 145 l4 117 64 18 c36 10 99 36 141 58 l76 39 81
-80 c88 -85 120 -100 193 -86 47 9 97 59 114 113 20 68 1 112 -87 203 l-75 76
39 76 c22 42 48 105 58 141 l18 64 117 4 c127 3 148 11 193 72 31 41 29 130
-3 175 -38 53 -89 71 -206 71 l-100 0 -19 65 c-10 36 -36 100 -58 142 l-39 76
75 76 c87 90 107 136 87 203 -16 52 -56 93 -108 108 -72 22 -105 8 -198 -81
l-82 -79 -76 38 c-42 22 -105 48 -141 58 l-64 18 -4 117 c-3 127 -11 148 -70
192 -34 25 -113 32 -153 13z m180 -641 c172 -45 305 -179 350 -352 65 -249
-94 -511 -350 -578 -251 -65 -513 94 -580 350 -89 343 237 669 580 580z"/>
</g>
</svg>
