<svg width="24" height="24" viewBox="0 0 24 24" fill="none" xmlns="http://www.w3.org/2000/svg">
<g clip-path="url(#clip0_105_52)">
<path d="M20.701 1.5H8.33823C8.07046 1.5 7.81366 1.61094 7.62432 1.80842C7.43498 2.00589 7.32861 2.27373 7.32861 2.553V3.75L14.2967 6L21.7106 3.75V2.553C21.7106 2.27373 21.6042 2.00589 21.4149 1.80842C21.2256 1.61094 20.9688 1.5 20.701 1.5Z" fill="#0364B8"/>
<path d="M22.8969 13.0538C23.0022 12.7085 23.0862 12.3565 23.1485 12C23.1484 11.9124 23.1263 11.8264 23.0842 11.7506C23.0422 11.6748 22.9818 11.6118 22.9091 11.568L22.8997 11.562L22.8969 11.5605L15.1032 6.93002C15.0696 6.90726 15.0348 6.88648 14.999 6.86777C14.8499 6.79059 14.6858 6.75043 14.5193 6.75043C14.3529 6.75043 14.1888 6.79059 14.0397 6.86777C14.0039 6.88622 13.9691 6.90676 13.9354 6.92927L6.14182 11.5613L6.13895 11.5628L6.13032 11.568C6.05746 11.6117 5.99691 11.6746 5.95475 11.7505C5.91259 11.8263 5.89031 11.9124 5.89014 12C5.95243 12.3565 6.0365 12.7085 6.14182 13.0538L14.4057 19.3575L22.8969 13.0538Z" fill="#0A2767"/>
<path d="M17.3962 3.75H12.3625L10.9092 6L12.3625 8.25L17.3962 12.75H21.7108V8.25L17.3962 3.75Z" fill="#28A8EA"/>
<path d="M7.32861 3.75H12.3623V8.25H7.32861V3.75Z" fill="#0078D4"/>
<path d="M17.396 3.75H21.7106V8.25H17.396V3.75Z" fill="#50D9FF"/>
<path d="M17.396 12.75L12.3623 8.25H7.32861V12.75L12.3623 17.25L20.1516 18.576L17.396 12.75Z" fill="#0364B8"/>
<path d="M12.3623 8.25H17.396V12.75H12.3623V8.25Z" fill="#0078D4"/>
<path d="M7.32861 12.75H12.3623V17.25H7.32861V12.75Z" fill="#064A8C"/>
<path d="M17.396 12.75H21.7106V17.25H17.396V12.75Z" fill="#0078D4"/>
<path opacity="0.5" d="M14.6561 18.9135L6.17578 12.4635L6.53174 11.811C6.53174 11.811 14.2585 16.401 14.3764 16.47C14.4246 16.4902 14.4763 16.4997 14.5283 16.4982C14.5803 16.4966 14.6313 16.484 14.6784 16.461L22.5403 11.7885L22.897 12.4403L14.6561 18.9135Z" fill="#0A2767"/>
<path d="M22.9094 12.4327L22.8994 12.4387L22.8972 12.4402L15.1036 17.0708C14.9488 17.1748 14.771 17.2358 14.5872 17.2477C14.4034 17.2597 14.2197 17.2222 14.0537 17.139L16.7676 20.9348L22.703 22.2825V22.2855C22.8411 22.1813 22.9535 22.0445 23.031 21.8862C23.1085 21.7279 23.1489 21.5527 23.1489 21.375V12C23.1489 12.0877 23.1268 12.1739 23.0848 12.2498C23.0427 12.3258 22.9823 12.3889 22.9094 12.4327Z" fill="#1490DF"/>
<path opacity="0.05" d="M23.1489 21.375V20.8215L15.9701 16.5555L15.1036 17.0707C14.9488 17.1748 14.771 17.2358 14.5872 17.2477C14.4034 17.2597 14.2197 17.2222 14.0537 17.139L16.7676 20.9347L22.703 22.2825V22.2855C22.8411 22.1813 22.9535 22.0445 23.031 21.8862C23.1085 21.7279 23.1489 21.5527 23.1489 21.375Z" fill="black"/>
<path opacity="0.1" d="M23.1129 21.6622L15.2438 16.9875L15.1036 17.07C14.9489 17.1742 14.7711 17.2353 14.5873 17.2474C14.4035 17.2594 14.2198 17.2221 14.0537 17.139L16.7676 20.9347L22.703 22.2825V22.2855C22.9043 22.1334 23.0491 21.9135 23.1129 21.663V21.6622Z" fill="black"/>
<path d="M6.14184 12.4425V12.435H6.13465L6.11308 12.42C6.04433 12.376 5.98768 12.3142 5.94861 12.2406C5.90955 12.167 5.88941 12.0841 5.89016 12V21.375C5.88997 21.5228 5.91774 21.6692 5.97188 21.8058C6.02602 21.9423 6.10546 22.0664 6.20566 22.1709C6.30586 22.2754 6.42485 22.3583 6.5558 22.4148C6.68676 22.4712 6.8271 22.5002 6.96881 22.5H22.0699C22.1598 22.4991 22.2491 22.4865 22.336 22.4625C22.381 22.4543 22.4247 22.4392 22.4654 22.4175C22.4807 22.4159 22.4954 22.4108 22.5086 22.4025C22.5674 22.3774 22.623 22.3446 22.674 22.305C22.6883 22.2975 22.6955 22.2975 22.7027 22.2825L6.14184 12.4425Z" fill="#28A8EA"/>
<path opacity="0.1" d="M13.0811 18.5002V6.24975C13.0804 5.98484 12.9791 5.73101 12.7995 5.54369C12.6199 5.35638 12.3766 5.25079 12.1226 5.25H7.34991V10.842L6.14182 11.5605L6.13823 11.562L6.1296 11.5673C6.05677 11.6111 5.99629 11.6742 5.95426 11.7502C5.91222 11.8261 5.89011 11.9123 5.89014 12V19.5H12.1226C12.3766 19.4992 12.6199 19.3936 12.7995 19.2063C12.9791 19.019 13.0804 18.7652 13.0811 18.5002Z" fill="black"/>
<path opacity="0.2" d="M12.362 19.2502V6.99975C12.3613 6.73484 12.26 6.48101 12.0804 6.29369C11.9008 6.10638 11.6575 6.00079 11.4035 6H7.34991V10.842L6.14182 11.5605L6.13823 11.562L6.1296 11.5673C6.05677 11.6111 5.99629 11.6742 5.95426 11.7502C5.91222 11.8261 5.89011 11.9123 5.89014 12V20.25H11.4035C11.6575 20.2492 11.9008 20.1436 12.0804 19.9563C12.26 19.769 12.3613 19.5152 12.362 19.2502Z" fill="black"/>
<path opacity="0.2" d="M12.362 17.7502V6.99975C12.3613 6.73484 12.26 6.48101 12.0804 6.29369C11.9008 6.10638 11.6575 6.00079 11.4035 6H7.34991V10.842L6.14182 11.5605L6.13823 11.562L6.1296 11.5673C6.05677 11.6111 5.99629 11.6742 5.95426 11.7502C5.91222 11.8261 5.89011 11.9123 5.89014 12V18.75H11.4035C11.6575 18.7492 11.9008 18.6436 12.0804 18.4563C12.26 18.269 12.3613 18.0152 12.362 17.7502Z" fill="black"/>
<path opacity="0.2" d="M11.6429 17.7502V6.99975C11.6422 6.73484 11.5409 6.48101 11.3613 6.29369C11.1817 6.10638 10.9384 6.00079 10.6844 6H7.34991V10.842L6.14182 11.5605L6.13823 11.562L6.1296 11.5673C6.05677 11.6111 5.99629 11.6742 5.95426 11.7502C5.91222 11.8261 5.89011 11.9123 5.89014 12V18.75H10.6844C10.9384 18.7492 11.1817 18.6436 11.3613 18.4563C11.5409 18.269 11.6422 18.0152 11.6429 17.7502Z" fill="black"/>
<path d="M1.09626 6H10.6847C10.939 6 11.1828 6.10533 11.3625 6.29282C11.5423 6.48031 11.6433 6.7346 11.6433 6.99975V17.0002C11.6433 17.2654 11.5423 17.5197 11.3625 17.7072C11.1828 17.8947 10.939 18 10.6847 18H1.09626C0.84203 18 0.598216 17.8947 0.418451 17.7072C0.238686 17.5197 0.137695 17.2654 0.137695 17.0002L0.137695 6.99975C0.137695 6.7346 0.238686 6.48031 0.418451 6.29282C0.598216 6.10533 0.84203 6 1.09626 6Z" fill="#0078D4"/>
<path d="M2.91836 10.101C3.17307 9.53487 3.58426 9.06108 4.09912 8.74053C4.66953 8.39997 5.31899 8.23023 5.97597 8.25003C6.5843 8.23626 7.18455 8.39712 7.71116 8.71503C8.20687 9.02298 8.6061 9.47454 8.86028 10.0148C9.13719 10.6103 9.27517 11.2656 9.26298 11.9273C9.27629 12.6184 9.13419 13.3032 8.84806 13.9268C8.58834 14.4862 8.17708 14.954 7.66514 15.2723C7.11787 15.6003 6.49483 15.7656 5.86379 15.75C5.24212 15.7655 4.62828 15.6028 4.08906 15.2798C3.58938 14.9713 3.18545 14.5193 2.92555 13.9778C2.64675 13.3911 2.50693 12.7432 2.51782 12.0885C2.50576 11.403 2.6427 10.7235 2.91836 10.101ZM4.17679 13.2945C4.31247 13.6524 4.5426 13.9629 4.84051 14.19C5.14409 14.4116 5.50775 14.526 5.87818 14.5163C6.27279 14.5323 6.6617 14.4141 6.98631 14.1795C7.2809 13.9525 7.50518 13.6404 7.63134 13.2818C7.77281 12.8822 7.84252 12.4589 7.837 12.033C7.84139 11.6031 7.77574 11.1755 7.64285 10.7685C7.52559 10.4024 7.30932 10.0794 7.02011 9.83853C6.70406 9.59216 6.31628 9.46688 5.92204 9.48378C5.54355 9.4738 5.17175 9.58906 4.85993 9.81303C4.55617 10.0405 4.32073 10.3535 4.1811 10.7153C3.87222 11.5448 3.87042 12.4645 4.17607 13.2953L4.17679 13.2945Z" fill="white"/>
</g>
<defs>
<clipPath id="clip0_105_52">
<rect width="24" height="24" fill="white"/>
</clipPath>
</defs>
</svg>
